<mxfile host="app.diagrams.net" modified="2023-05-09T14:40:40.980Z" agent="Mozilla/5.0 (Windows NT 10.0; Win64; x64) AppleWebKit/537.36 (KHTML, like Gecko) Chrome/113.0.0.0 Safari/537.36" etag="bVfz69_BgMzMLH5MtCMl" version="21.2.1">
  <diagram name="Page-1" id="1h1zrpRFiIsdtJTOJf3r">
    <mxGraphModel dx="1687" dy="948" grid="1" gridSize="10" guides="1" tooltips="1" connect="1" arrows="1" fold="1" page="1" pageScale="1" pageWidth="850" pageHeight="1100" math="0" shadow="0">
      <root>
        <mxCell id="0" />
        <mxCell id="1" parent="0" />
        <mxCell id="bl8hjmPO_WGO8F9ddx88-1" value="&lt;p style=&quot;line-height: 120%;&quot;&gt;&lt;font style=&quot;font-size: 12px;&quot;&gt;System&lt;/font&gt;&lt;/p&gt;" style="whiteSpace=wrap;html=1;aspect=fixed;" vertex="1" parent="1">
          <mxGeometry x="100" y="230" width="610" height="610" as="geometry" />
        </mxCell>
        <mxCell id="bl8hjmPO_WGO8F9ddx88-28" style="edgeStyle=orthogonalEdgeStyle;rounded=0;orthogonalLoop=1;jettySize=auto;html=1;entryX=0;entryY=1;entryDx=0;entryDy=0;entryPerimeter=0;dashed=1;endArrow=open;endFill=0;" edge="1" parent="1" source="bl8hjmPO_WGO8F9ddx88-2" target="bl8hjmPO_WGO8F9ddx88-5">
          <mxGeometry relative="1" as="geometry">
            <Array as="points">
              <mxPoint x="35" y="190" />
            </Array>
          </mxGeometry>
        </mxCell>
        <mxCell id="bl8hjmPO_WGO8F9ddx88-31" style="edgeStyle=orthogonalEdgeStyle;rounded=0;orthogonalLoop=1;jettySize=auto;html=1;dashed=1;endArrow=open;endFill=0;" edge="1" parent="1" source="bl8hjmPO_WGO8F9ddx88-2" target="bl8hjmPO_WGO8F9ddx88-4">
          <mxGeometry relative="1" as="geometry">
            <Array as="points">
              <mxPoint x="20" y="890" />
            </Array>
          </mxGeometry>
        </mxCell>
        <mxCell id="bl8hjmPO_WGO8F9ddx88-2" value="Company" style="shape=umlActor;verticalLabelPosition=bottom;verticalAlign=top;html=1;outlineConnect=0;" vertex="1" parent="1">
          <mxGeometry x="20" y="290" width="30" height="60" as="geometry" />
        </mxCell>
        <mxCell id="bl8hjmPO_WGO8F9ddx88-29" style="edgeStyle=orthogonalEdgeStyle;rounded=0;orthogonalLoop=1;jettySize=auto;html=1;entryX=0.5;entryY=0.5;entryDx=0;entryDy=0;entryPerimeter=0;dashed=1;endArrow=open;endFill=0;" edge="1" parent="1" source="bl8hjmPO_WGO8F9ddx88-3" target="bl8hjmPO_WGO8F9ddx88-5">
          <mxGeometry relative="1" as="geometry">
            <Array as="points">
              <mxPoint x="70" y="160" />
            </Array>
          </mxGeometry>
        </mxCell>
        <mxCell id="bl8hjmPO_WGO8F9ddx88-32" style="edgeStyle=orthogonalEdgeStyle;rounded=0;orthogonalLoop=1;jettySize=auto;html=1;dashed=1;endArrow=open;endFill=0;" edge="1" parent="1" source="bl8hjmPO_WGO8F9ddx88-3" target="bl8hjmPO_WGO8F9ddx88-4">
          <mxGeometry relative="1" as="geometry">
            <Array as="points">
              <mxPoint x="50" y="890" />
            </Array>
          </mxGeometry>
        </mxCell>
        <mxCell id="bl8hjmPO_WGO8F9ddx88-41" style="edgeStyle=orthogonalEdgeStyle;rounded=0;orthogonalLoop=1;jettySize=auto;html=1;exitX=0.5;exitY=0.5;exitDx=0;exitDy=0;exitPerimeter=0;entryX=0;entryY=0;entryDx=0;entryDy=0;endArrow=open;endFill=0;" edge="1" parent="1" source="bl8hjmPO_WGO8F9ddx88-3" target="bl8hjmPO_WGO8F9ddx88-18">
          <mxGeometry relative="1" as="geometry" />
        </mxCell>
        <mxCell id="bl8hjmPO_WGO8F9ddx88-42" style="edgeStyle=orthogonalEdgeStyle;rounded=0;orthogonalLoop=1;jettySize=auto;html=1;exitX=0.5;exitY=0.5;exitDx=0;exitDy=0;exitPerimeter=0;endArrow=open;endFill=0;" edge="1" parent="1" source="bl8hjmPO_WGO8F9ddx88-3" target="bl8hjmPO_WGO8F9ddx88-27">
          <mxGeometry relative="1" as="geometry">
            <Array as="points">
              <mxPoint x="140" y="550" />
              <mxPoint x="140" y="565" />
            </Array>
          </mxGeometry>
        </mxCell>
        <mxCell id="bl8hjmPO_WGO8F9ddx88-43" style="edgeStyle=orthogonalEdgeStyle;rounded=0;orthogonalLoop=1;jettySize=auto;html=1;exitX=0.5;exitY=0.5;exitDx=0;exitDy=0;exitPerimeter=0;endArrow=open;endFill=0;" edge="1" parent="1" source="bl8hjmPO_WGO8F9ddx88-3" target="bl8hjmPO_WGO8F9ddx88-20">
          <mxGeometry relative="1" as="geometry">
            <Array as="points">
              <mxPoint x="110" y="550" />
              <mxPoint x="110" y="765" />
            </Array>
          </mxGeometry>
        </mxCell>
        <mxCell id="bl8hjmPO_WGO8F9ddx88-57" style="edgeStyle=orthogonalEdgeStyle;rounded=0;orthogonalLoop=1;jettySize=auto;html=1;entryX=0.5;entryY=1;entryDx=0;entryDy=0;endArrow=open;endFill=0;" edge="1" parent="1" source="bl8hjmPO_WGO8F9ddx88-3" target="bl8hjmPO_WGO8F9ddx88-21">
          <mxGeometry relative="1" as="geometry">
            <Array as="points">
              <mxPoint x="65" y="810" />
              <mxPoint x="275" y="810" />
            </Array>
          </mxGeometry>
        </mxCell>
        <mxCell id="bl8hjmPO_WGO8F9ddx88-3" value="Customer" style="shape=umlActor;verticalLabelPosition=bottom;verticalAlign=top;html=1;outlineConnect=0;" vertex="1" parent="1">
          <mxGeometry x="50" y="520" width="30" height="60" as="geometry" />
        </mxCell>
        <mxCell id="bl8hjmPO_WGO8F9ddx88-44" style="edgeStyle=orthogonalEdgeStyle;rounded=0;orthogonalLoop=1;jettySize=auto;html=1;exitX=0.5;exitY=0.5;exitDx=0;exitDy=0;exitPerimeter=0;endArrow=open;endFill=0;" edge="1" parent="1" source="bl8hjmPO_WGO8F9ddx88-4" target="bl8hjmPO_WGO8F9ddx88-19">
          <mxGeometry relative="1" as="geometry">
            <Array as="points">
              <mxPoint x="220" y="890" />
              <mxPoint x="220" y="635" />
            </Array>
          </mxGeometry>
        </mxCell>
        <mxCell id="bl8hjmPO_WGO8F9ddx88-48" style="edgeStyle=orthogonalEdgeStyle;rounded=0;orthogonalLoop=1;jettySize=auto;html=1;exitX=0.5;exitY=0.5;exitDx=0;exitDy=0;exitPerimeter=0;entryX=0.5;entryY=1;entryDx=0;entryDy=0;endArrow=open;endFill=0;" edge="1" parent="1" source="bl8hjmPO_WGO8F9ddx88-4" target="bl8hjmPO_WGO8F9ddx88-22">
          <mxGeometry relative="1" as="geometry" />
        </mxCell>
        <mxCell id="bl8hjmPO_WGO8F9ddx88-49" style="edgeStyle=orthogonalEdgeStyle;rounded=0;orthogonalLoop=1;jettySize=auto;html=1;exitX=0.5;exitY=0.5;exitDx=0;exitDy=0;exitPerimeter=0;entryX=0.5;entryY=1;entryDx=0;entryDy=0;endArrow=open;endFill=0;" edge="1" parent="1" source="bl8hjmPO_WGO8F9ddx88-4" target="bl8hjmPO_WGO8F9ddx88-17">
          <mxGeometry relative="1" as="geometry" />
        </mxCell>
        <mxCell id="bl8hjmPO_WGO8F9ddx88-52" style="edgeStyle=orthogonalEdgeStyle;rounded=0;orthogonalLoop=1;jettySize=auto;html=1;exitX=0.5;exitY=0.5;exitDx=0;exitDy=0;exitPerimeter=0;entryX=0.5;entryY=1;entryDx=0;entryDy=0;endArrow=open;endFill=0;" edge="1" parent="1" source="bl8hjmPO_WGO8F9ddx88-4" target="bl8hjmPO_WGO8F9ddx88-23">
          <mxGeometry relative="1" as="geometry" />
        </mxCell>
        <mxCell id="bl8hjmPO_WGO8F9ddx88-53" style="edgeStyle=orthogonalEdgeStyle;rounded=0;orthogonalLoop=1;jettySize=auto;html=1;exitX=0.5;exitY=0.5;exitDx=0;exitDy=0;exitPerimeter=0;endArrow=open;endFill=0;" edge="1" parent="1" source="bl8hjmPO_WGO8F9ddx88-4" target="bl8hjmPO_WGO8F9ddx88-24">
          <mxGeometry relative="1" as="geometry" />
        </mxCell>
        <mxCell id="bl8hjmPO_WGO8F9ddx88-54" style="edgeStyle=orthogonalEdgeStyle;rounded=0;orthogonalLoop=1;jettySize=auto;html=1;exitX=0.5;exitY=0.5;exitDx=0;exitDy=0;exitPerimeter=0;endArrow=open;endFill=0;" edge="1" parent="1" source="bl8hjmPO_WGO8F9ddx88-4" target="bl8hjmPO_WGO8F9ddx88-15">
          <mxGeometry relative="1" as="geometry">
            <Array as="points">
              <mxPoint x="610" y="890" />
            </Array>
          </mxGeometry>
        </mxCell>
        <mxCell id="bl8hjmPO_WGO8F9ddx88-55" style="edgeStyle=orthogonalEdgeStyle;rounded=0;orthogonalLoop=1;jettySize=auto;html=1;exitX=0.5;exitY=0.5;exitDx=0;exitDy=0;exitPerimeter=0;endArrow=open;endFill=0;" edge="1" parent="1" source="bl8hjmPO_WGO8F9ddx88-4" target="bl8hjmPO_WGO8F9ddx88-16">
          <mxGeometry relative="1" as="geometry">
            <Array as="points">
              <mxPoint x="490" y="890" />
            </Array>
          </mxGeometry>
        </mxCell>
        <mxCell id="bl8hjmPO_WGO8F9ddx88-4" value="" style="shape=umlActor;verticalLabelPosition=bottom;verticalAlign=top;html=1;outlineConnect=0;" vertex="1" parent="1">
          <mxGeometry x="80" y="860" width="30" height="60" as="geometry" />
        </mxCell>
        <mxCell id="bl8hjmPO_WGO8F9ddx88-37" style="edgeStyle=orthogonalEdgeStyle;rounded=0;orthogonalLoop=1;jettySize=auto;html=1;exitX=0.5;exitY=0.5;exitDx=0;exitDy=0;exitPerimeter=0;endArrow=open;endFill=0;strokeColor=none;" edge="1" parent="1" source="bl8hjmPO_WGO8F9ddx88-5" target="bl8hjmPO_WGO8F9ddx88-10">
          <mxGeometry relative="1" as="geometry" />
        </mxCell>
        <mxCell id="bl8hjmPO_WGO8F9ddx88-38" style="edgeStyle=orthogonalEdgeStyle;rounded=0;orthogonalLoop=1;jettySize=auto;html=1;exitX=0.5;exitY=0.5;exitDx=0;exitDy=0;exitPerimeter=0;entryX=0.5;entryY=0;entryDx=0;entryDy=0;endArrow=open;endFill=0;" edge="1" parent="1" source="bl8hjmPO_WGO8F9ddx88-5" target="bl8hjmPO_WGO8F9ddx88-10">
          <mxGeometry relative="1" as="geometry" />
        </mxCell>
        <mxCell id="bl8hjmPO_WGO8F9ddx88-5" value="" style="shape=umlActor;verticalLabelPosition=bottom;verticalAlign=top;html=1;outlineConnect=0;" vertex="1" parent="1">
          <mxGeometry x="270" y="130" width="30" height="60" as="geometry" />
        </mxCell>
        <mxCell id="bl8hjmPO_WGO8F9ddx88-30" style="edgeStyle=orthogonalEdgeStyle;rounded=0;orthogonalLoop=1;jettySize=auto;html=1;exitX=0;exitY=0.3333333333333333;exitDx=0;exitDy=0;exitPerimeter=0;entryX=1;entryY=0.3333333333333333;entryDx=0;entryDy=0;entryPerimeter=0;dashed=1;endArrow=open;endFill=0;" edge="1" parent="1" source="bl8hjmPO_WGO8F9ddx88-6" target="bl8hjmPO_WGO8F9ddx88-5">
          <mxGeometry relative="1" as="geometry">
            <Array as="points">
              <mxPoint x="780" y="150" />
            </Array>
          </mxGeometry>
        </mxCell>
        <mxCell id="bl8hjmPO_WGO8F9ddx88-39" style="edgeStyle=orthogonalEdgeStyle;rounded=0;orthogonalLoop=1;jettySize=auto;html=1;exitX=0.5;exitY=0.5;exitDx=0;exitDy=0;exitPerimeter=0;entryX=1;entryY=0.5;entryDx=0;entryDy=0;endArrow=open;endFill=0;" edge="1" parent="1" source="bl8hjmPO_WGO8F9ddx88-6" target="bl8hjmPO_WGO8F9ddx88-14">
          <mxGeometry relative="1" as="geometry" />
        </mxCell>
        <mxCell id="bl8hjmPO_WGO8F9ddx88-6" value="Admin" style="shape=umlActor;verticalLabelPosition=bottom;verticalAlign=top;html=1;outlineConnect=0;" vertex="1" parent="1">
          <mxGeometry x="780" y="330" width="30" height="60" as="geometry" />
        </mxCell>
        <mxCell id="bl8hjmPO_WGO8F9ddx88-12" value="" style="edgeStyle=orthogonalEdgeStyle;rounded=0;orthogonalLoop=1;jettySize=auto;html=1;endArrow=open;endFill=0;" edge="1" parent="1" source="bl8hjmPO_WGO8F9ddx88-10" target="bl8hjmPO_WGO8F9ddx88-11">
          <mxGeometry relative="1" as="geometry" />
        </mxCell>
        <mxCell id="bl8hjmPO_WGO8F9ddx88-10" value="Login" style="ellipse;whiteSpace=wrap;html=1;" vertex="1" parent="1">
          <mxGeometry x="160" y="300" width="90" height="50" as="geometry" />
        </mxCell>
        <mxCell id="bl8hjmPO_WGO8F9ddx88-11" value="Authentication" style="ellipse;whiteSpace=wrap;html=1;" vertex="1" parent="1">
          <mxGeometry x="280" y="300" width="90" height="50" as="geometry" />
        </mxCell>
        <mxCell id="bl8hjmPO_WGO8F9ddx88-13" value="Authentication" style="ellipse;whiteSpace=wrap;html=1;" vertex="1" parent="1">
          <mxGeometry x="425" y="295" width="90" height="50" as="geometry" />
        </mxCell>
        <mxCell id="bl8hjmPO_WGO8F9ddx88-40" style="edgeStyle=orthogonalEdgeStyle;rounded=0;orthogonalLoop=1;jettySize=auto;html=1;exitX=0;exitY=0.5;exitDx=0;exitDy=0;endArrow=open;endFill=0;" edge="1" parent="1" source="bl8hjmPO_WGO8F9ddx88-14" target="bl8hjmPO_WGO8F9ddx88-13">
          <mxGeometry relative="1" as="geometry" />
        </mxCell>
        <mxCell id="bl8hjmPO_WGO8F9ddx88-14" value="Authentication" style="ellipse;whiteSpace=wrap;html=1;" vertex="1" parent="1">
          <mxGeometry x="560" y="295" width="90" height="50" as="geometry" />
        </mxCell>
        <mxCell id="bl8hjmPO_WGO8F9ddx88-15" value="Cart" style="ellipse;whiteSpace=wrap;html=1;" vertex="1" parent="1">
          <mxGeometry x="590" y="610" width="90" height="50" as="geometry" />
        </mxCell>
        <mxCell id="bl8hjmPO_WGO8F9ddx88-16" value="Service" style="ellipse;whiteSpace=wrap;html=1;" vertex="1" parent="1">
          <mxGeometry x="460" y="610" width="90" height="50" as="geometry" />
        </mxCell>
        <mxCell id="bl8hjmPO_WGO8F9ddx88-50" style="edgeStyle=orthogonalEdgeStyle;rounded=0;orthogonalLoop=1;jettySize=auto;html=1;exitX=0;exitY=1;exitDx=0;exitDy=0;entryX=0.5;entryY=0;entryDx=0;entryDy=0;endArrow=open;endFill=0;" edge="1" parent="1" source="bl8hjmPO_WGO8F9ddx88-17" target="bl8hjmPO_WGO8F9ddx88-25">
          <mxGeometry relative="1" as="geometry" />
        </mxCell>
        <mxCell id="bl8hjmPO_WGO8F9ddx88-51" style="edgeStyle=orthogonalEdgeStyle;rounded=0;orthogonalLoop=1;jettySize=auto;html=1;exitX=1;exitY=1;exitDx=0;exitDy=0;entryX=0.5;entryY=0;entryDx=0;entryDy=0;endArrow=open;endFill=0;" edge="1" parent="1" source="bl8hjmPO_WGO8F9ddx88-17" target="bl8hjmPO_WGO8F9ddx88-26">
          <mxGeometry relative="1" as="geometry" />
        </mxCell>
        <mxCell id="bl8hjmPO_WGO8F9ddx88-17" value="Auction" style="ellipse;whiteSpace=wrap;html=1;" vertex="1" parent="1">
          <mxGeometry x="335" y="610" width="90" height="50" as="geometry" />
        </mxCell>
        <mxCell id="bl8hjmPO_WGO8F9ddx88-18" value="Spin the Wheel" style="ellipse;whiteSpace=wrap;html=1;" vertex="1" parent="1">
          <mxGeometry x="120" y="610" width="90" height="50" as="geometry" />
        </mxCell>
        <mxCell id="bl8hjmPO_WGO8F9ddx88-19" value="Search and Filtering" style="ellipse;whiteSpace=wrap;html=1;" vertex="1" parent="1">
          <mxGeometry x="230" y="610" width="90" height="50" as="geometry" />
        </mxCell>
        <mxCell id="bl8hjmPO_WGO8F9ddx88-20" value="Buy" style="ellipse;whiteSpace=wrap;html=1;" vertex="1" parent="1">
          <mxGeometry x="120" y="740" width="90" height="50" as="geometry" />
        </mxCell>
        <mxCell id="bl8hjmPO_WGO8F9ddx88-21" value="Track Delivery" style="ellipse;whiteSpace=wrap;html=1;" vertex="1" parent="1">
          <mxGeometry x="230" y="740" width="90" height="50" as="geometry" />
        </mxCell>
        <mxCell id="bl8hjmPO_WGO8F9ddx88-22" value="Invite Friend" style="ellipse;whiteSpace=wrap;html=1;" vertex="1" parent="1">
          <mxGeometry x="370" y="740" width="90" height="50" as="geometry" />
        </mxCell>
        <mxCell id="bl8hjmPO_WGO8F9ddx88-23" value="Inventory" style="ellipse;whiteSpace=wrap;html=1;" vertex="1" parent="1">
          <mxGeometry x="500" y="740" width="90" height="50" as="geometry" />
        </mxCell>
        <mxCell id="bl8hjmPO_WGO8F9ddx88-24" value="Sell" style="ellipse;whiteSpace=wrap;html=1;" vertex="1" parent="1">
          <mxGeometry x="610" y="740" width="90" height="50" as="geometry" />
        </mxCell>
        <mxCell id="bl8hjmPO_WGO8F9ddx88-25" value="Create" style="ellipse;whiteSpace=wrap;html=1;aspect=fixed;" vertex="1" parent="1">
          <mxGeometry x="320" y="670" width="40" height="40" as="geometry" />
        </mxCell>
        <mxCell id="bl8hjmPO_WGO8F9ddx88-26" value="Join" style="ellipse;whiteSpace=wrap;html=1;aspect=fixed;" vertex="1" parent="1">
          <mxGeometry x="395" y="670" width="40" height="40" as="geometry" />
        </mxCell>
        <mxCell id="bl8hjmPO_WGO8F9ddx88-27" value="Circuit Heaven Stores" style="ellipse;whiteSpace=wrap;html=1;" vertex="1" parent="1">
          <mxGeometry x="150" y="540" width="90" height="50" as="geometry" />
        </mxCell>
      </root>
    </mxGraphModel>
  </diagram>
</mxfile>
